<?xml version="1.0" encoding="utf-8"?><!DOCTYPE svg PUBLIC "-//W3C//DTD SVG 1.1//EN" "http://www.w3.org/Graphics/SVG/1.1/DTD/svg11.dtd"><svg version="1.1" xmlns="http://www.w3.org/2000/svg" xmlns:xlink="http://www.w3.org/1999/xlink" width="24" height="24" viewBox="0 0 24 24" data-tags="miscellaneous_services"><g fill="#444" transform="scale(0.0234375 0.0234375)"><path d="M604 584l60-102q6-12-4-20l-62-48q2-16 2-30t-2-30l62-48q10-10 4-20l-60-104q-6-10-18-6l-74 30q-24-18-50-30l-12-78q-2-12-14-12h-120q-12 0-14 12l-12 80q-28 10-50 28l-74-30q-12-4-18 8l-60 102q-8 12 2 20l64 48q-2 16-2 30t2 30l-64 48q-10 10-2 20l60 104q6 10 18 6l74-30q24 18 50 30l12 78q2 12 14 12h120q12 0 14-12l12-80q28-10 50-28l74 30q12 4 18-8zM376 470q-36 0-61-25t-25-61 25-61 61-25 61 25 25 61-25 61-61 25zM936 796l-42-30q0-6 1-10t1-10q0-10-2-18l40-32q8-6 2-12l-38-66q-2-8-12-4l-46 18q-16-12-34-18l-6-50q-2-10-10-10h-76q-8 0-10 8l-6 52q-10 2-18 7t-14 11l-48-20q-8-2-12 4l-38 68q-4 6 2 12l40 32q-2 8-2 18t2 18l-40 32q-6 6-2 12l38 66q4 8 12 4l48-18q14 12 32 18l6 50q2 8 10 8h76q10 0 10-8l8-50 16-8t16-10l48 18q6 4 10-4l40-66q4-6-2-12zM752 804q-24 0-41-17t-17-41 17-41 41-17 41 17 17 41-17 41-41 17z" /></g></svg>